<svg width="766" height="493" viewBox="0 0 766 493" fill="none" xmlns="http://www.w3.org/2000/svg">
<path d="M585 263.652C609.048 280.92 646.023 274.419 664.431 251.204C682.838 227.989 682.191 192.276 664.76 168.141C647.329 144.006 615.443 132.375 586.259 136.996" stroke="#B0CDF8" stroke-width="1.5" stroke-miterlimit="10" stroke-linecap="round" stroke-linejoin="round" stroke-dasharray="10 10"/>
<g opacity="0.75">
<path d="M656.368 81.6822C656.368 73.5937 662.919 67.0367 671 67.0367C679.081 67.0367 685.632 73.5937 685.632 81.6822C685.632 89.7707 679.081 96.3276 671 96.3276C662.919 96.3276 656.368 89.7707 656.368 81.6822Z" fill="url(#paint0_linear_2340_24134)"/>
<path d="M704.622 69.6856C704.622 65.6413 707.898 62.3629 711.938 62.3629C715.979 62.3629 719.254 65.6413 719.254 69.6856C719.254 73.7298 715.979 77.0083 711.938 77.0083C707.898 77.0083 704.622 73.7298 704.622 69.6856Z" fill="url(#paint1_linear_2340_24134)"/>
<path d="M663.217 26.4236C663.217 23.8421 665.308 21.7495 667.887 21.7495C670.466 21.7495 672.557 23.8421 672.557 26.4236C672.557 29.005 670.466 31.0977 667.887 31.0977C665.308 31.0977 663.217 29.005 663.217 26.4236Z" fill="url(#paint2_linear_2340_24134)"/>
<path d="M603.444 98.509C603.444 95.9276 605.535 93.8349 608.114 93.8349C610.693 93.8349 612.783 95.9276 612.783 98.509C612.783 101.09 610.693 103.183 608.114 103.183C605.535 103.183 603.444 101.09 603.444 98.509Z" fill="url(#paint3_linear_2340_24134)"/>
<path d="M176.573 78.1208C177.517 85.9203 171.96 93.0087 164.161 93.9532C156.361 94.8977 149.273 89.3407 148.328 81.5412C147.384 73.7417 152.941 66.6533 160.74 65.7088C168.54 64.7643 175.628 70.3213 176.573 78.1208Z" fill="url(#paint4_linear_2340_24134)"/>
<path d="M91.1948 33.4321C91.5397 36.2796 89.513 38.8672 86.6682 39.2117C83.8234 39.5562 81.2377 37.5271 80.8929 34.6797C80.5481 31.8322 82.5747 29.2447 85.4195 28.9002C88.2643 28.5557 90.85 30.5847 91.1948 33.4321Z" fill="url(#paint5_linear_2340_24134)"/>
<path d="M152.284 7.02735C152.629 9.87479 150.602 12.4624 147.757 12.8069C144.912 13.1514 142.327 11.1223 141.982 8.27489C141.637 5.42745 143.664 2.83987 146.508 2.49537C149.353 2.15087 151.939 4.1799 152.284 7.02735Z" fill="url(#paint6_linear_2340_24134)"/>
</g>
<path d="M28.5934 217.323L27.4143 209.096L20.2072 213.898L27.3451 218.155L28.5934 217.323ZM591.932 342.174L591.942 341.424L591.932 342.174ZM31.9157 224.506C33.9486 227.27 36.0172 229.973 38.121 232.614L39.2943 231.68C37.2026 229.053 35.1457 226.366 33.1241 223.618L31.9157 224.506ZM44.5966 240.427C46.8392 243.027 49.1185 245.564 51.4337 248.039L52.5291 247.014C50.2277 244.554 47.9619 242.032 45.7325 239.447L44.5966 240.427ZM58.5265 255.32C60.9621 257.72 63.4345 260.058 65.9428 262.335L66.951 261.224C64.4578 258.961 62.0004 256.637 59.5794 254.251L58.5265 255.32ZM73.6258 269.026C76.2392 271.209 78.8887 273.331 81.5735 275.393L82.4874 274.204C79.8186 272.154 77.185 270.044 74.5875 267.875L73.6258 269.026ZM89.7858 281.442C92.5632 283.402 95.3757 285.303 98.2225 287.148L99.0381 285.889C96.2078 284.055 93.4117 282.165 90.6507 280.216L89.7858 281.442ZM106.884 292.522C109.802 294.256 112.754 295.934 115.738 297.559L116.455 296.241C113.487 294.626 110.552 292.957 107.65 291.233L106.884 292.522ZM124.782 302.268C127.814 303.778 130.877 305.236 133.971 306.645L134.592 305.28C131.514 303.878 128.466 302.427 125.45 300.926L124.782 302.268ZM143.321 310.712C146.446 312.01 149.6 313.261 152.783 314.466L153.314 313.063C150.146 311.864 147.006 310.619 143.896 309.327L143.321 310.712ZM162.36 317.926C165.563 319.03 168.793 320.09 172.049 321.109L172.497 319.677C169.254 318.663 166.037 317.607 162.848 316.508L162.36 317.926ZM181.79 324.012C185.05 324.936 188.335 325.822 191.644 326.671L192.017 325.218C188.719 324.372 185.446 323.49 182.199 322.569L181.79 324.012ZM201.514 329.076C204.809 329.838 208.126 330.565 211.466 331.26L211.772 329.791C208.442 329.099 205.136 328.374 201.852 327.614L201.514 329.076ZM221.452 333.227C224.771 333.846 228.11 334.434 231.47 334.993L231.716 333.513C228.365 332.956 225.036 332.369 221.727 331.753L221.452 333.227ZM241.541 336.574C244.875 337.067 248.228 337.533 251.6 337.974L251.794 336.486C248.431 336.047 245.086 335.582 241.76 335.09L241.541 336.574ZM261.733 339.217C265.077 339.601 268.438 339.961 271.816 340.3L271.966 338.808C268.595 338.47 265.241 338.11 261.904 337.726L261.733 339.217ZM281.977 341.249C285.332 341.54 288.703 341.81 292.089 342.062L292.2 340.566C288.82 340.315 285.456 340.045 282.107 339.754L281.977 341.249ZM302.26 342.758C305.625 342.97 309.003 343.163 312.395 343.341L312.474 341.843C309.087 341.666 305.713 341.472 302.354 341.261L302.26 342.758ZM322.572 343.824C325.942 343.967 329.326 344.096 332.721 344.212L332.772 342.712C329.381 342.597 326.002 342.469 322.636 342.325L322.572 343.824ZM342.899 344.515C346.274 344.603 349.66 344.678 353.056 344.741L353.084 343.242C349.691 343.178 346.309 343.103 342.938 343.016L342.899 344.515ZM363.234 344.898C366.611 344.939 369.998 344.97 373.394 344.991L373.404 343.491C370.01 343.47 366.626 343.439 363.252 343.398L363.234 344.898ZM383.571 345.029C386.949 345.033 390.336 345.029 393.731 345.018L393.726 343.518C390.333 343.529 386.948 343.533 383.573 343.529L383.571 345.029ZM403.908 344.964C407.286 344.94 410.672 344.909 414.066 344.873L414.05 343.373C410.658 343.409 407.273 343.44 403.897 343.464L403.908 344.964ZM424.242 344.751C427.62 344.706 431.005 344.657 434.397 344.604L434.374 343.104C430.983 343.157 427.599 343.206 424.222 343.251L424.242 344.751ZM444.574 344.437C447.952 344.379 451.336 344.319 454.727 344.257L454.699 342.757C451.309 342.819 447.925 342.88 444.548 342.938L444.574 344.437ZM464.903 344.066C468.281 344.002 471.665 343.937 475.054 343.872L475.025 342.373C471.636 342.437 468.252 342.502 464.874 342.566L464.903 344.066ZM485.23 343.679C488.609 343.616 491.992 343.553 495.38 343.492L495.353 341.993C491.965 342.053 488.581 342.116 485.202 342.179L485.23 343.679ZM505.555 343.316C508.935 343.26 512.318 343.206 515.705 343.156L515.683 341.656C512.295 341.706 508.91 341.76 505.53 341.816L505.555 343.316ZM525.875 343.015C529.258 342.973 532.643 342.934 536.031 342.9L536.016 341.4C532.627 341.434 529.24 341.473 525.857 341.516L525.875 343.015ZM546.197 342.815C549.581 342.792 552.968 342.775 556.356 342.764L556.351 341.264C552.961 341.275 549.573 341.292 546.187 341.315L546.197 342.815ZM566.519 342.752C569.905 342.755 573.292 342.766 576.68 342.784L576.688 341.284C573.298 341.266 569.908 341.255 566.521 341.252L566.519 342.752ZM586.841 342.864C588.534 342.882 590.228 342.902 591.923 342.924L591.942 341.424C590.247 341.402 588.551 341.382 586.856 341.364L586.841 342.864ZM591.923 342.924C593.624 342.946 595.313 342.973 596.99 343.004L597.018 341.504C595.338 341.473 593.646 341.446 591.942 341.424L591.923 342.924ZM606.903 343.245C610.293 343.347 613.629 343.468 616.911 343.607L616.975 342.109C613.686 341.969 610.344 341.848 606.948 341.746L606.903 343.245ZM626.78 344.091C630.171 344.279 633.499 344.488 636.766 344.718L636.871 343.221C633.597 342.992 630.261 342.782 626.863 342.593L626.78 344.091ZM646.708 345.493C650.058 345.781 653.338 346.092 656.545 346.423L656.7 344.931C653.483 344.599 650.195 344.287 646.836 343.998L646.708 345.493ZM666.464 347.545C669.854 347.962 673.154 348.404 676.364 348.871L676.58 347.387C673.358 346.918 670.047 346.474 666.647 346.056L666.464 347.545ZM686.185 350.423C689.547 350.998 692.797 351.602 695.935 352.234L696.231 350.764C693.079 350.129 689.814 349.522 686.438 348.944L686.185 350.423ZM705.619 354.356C708.975 355.155 712.178 355.989 715.226 356.856L715.636 355.413C712.566 354.54 709.342 353.701 705.966 352.897L705.619 354.356ZM724.716 359.831C728.042 360.981 731.132 362.178 733.983 363.415L734.58 362.039C731.69 360.785 728.565 359.575 725.206 358.413L724.716 359.831ZM742.794 367.797C745.941 369.607 748.633 371.482 750.87 373.409L751.849 372.272C749.528 370.272 746.755 368.345 743.542 366.497L742.794 367.797ZM757.07 380.765C758.687 383.736 759.334 386.787 759.016 389.902L760.508 390.055C760.859 386.615 760.138 383.264 758.387 380.048L757.07 380.765ZM755.622 398.762C754.034 401.185 751.892 403.65 749.176 406.142L750.191 407.247C752.977 404.69 755.207 402.132 756.876 399.584L755.622 398.762ZM741.515 412.192C738.994 413.938 736.197 415.687 733.121 417.436L733.862 418.74C736.972 416.972 739.807 415.199 742.368 413.425L741.515 412.192ZM724.331 422.059C721.501 423.441 718.495 424.821 715.312 426.195L715.906 427.572C719.11 426.189 722.137 424.8 724.99 423.406L724.331 422.059ZM706.132 429.948C703.155 431.104 700.05 432.254 696.816 433.398L697.316 434.812C700.564 433.664 703.683 432.508 706.675 431.347L706.132 429.948ZM687.363 436.6C684.276 437.603 681.086 438.599 677.793 439.589L678.225 441.026C681.528 440.033 684.728 439.033 687.827 438.026L687.363 436.6ZM668.337 442.332C666.722 442.784 665.084 443.235 663.424 443.684L663.815 445.132C665.48 444.682 667.122 444.23 668.742 443.776L668.337 442.332Z" fill="#B0CDF8"/>
<path d="M699.571 451.414L689.999 435.465L684.429 436.45L686.612 429.855L676.779 413.559L636.043 445.126L699.571 451.414Z" fill="url(#paint7_linear_2340_24134)"/>
<path d="M636.043 445.126L686.612 429.855L684.429 436.45L636.043 445.126Z" fill="url(#paint8_linear_2340_24134)"/>
<defs>
<linearGradient id="paint0_linear_2340_24134" x1="681.373" y1="91.9197" x2="660.763" y2="71.3283" gradientUnits="userSpaceOnUse">
<stop offset="0.1905" stop-color="#2CB0FF"/>
<stop offset="1" stop-color="#4786E3"/>
</linearGradient>
<linearGradient id="paint1_linear_2340_24134" x1="717.114" y1="74.7761" x2="706.808" y2="64.4804" gradientUnits="userSpaceOnUse">
<stop offset="0.2444" stop-color="#43CA04"/>
<stop offset="1" stop-color="#65B000"/>
</linearGradient>
<linearGradient id="paint2_linear_2340_24134" x1="671.201" y1="29.7255" x2="664.557" y2="23.0875" gradientUnits="userSpaceOnUse">
<stop stop-color="#FCF30A"/>
<stop offset="1" stop-color="#FFAA00"/>
</linearGradient>
<linearGradient id="paint3_linear_2340_24134" x1="611.427" y1="101.855" x2="604.782" y2="95.2167" gradientUnits="userSpaceOnUse">
<stop stop-color="#FCF30A"/>
<stop offset="1" stop-color="#FFAA00"/>
</linearGradient>
<linearGradient id="paint4_linear_2340_24134" x1="151.266" y1="71.1449" x2="173.547" y2="88.6123" gradientUnits="userSpaceOnUse">
<stop offset="0.2444" stop-color="#16BE45"/>
<stop offset="1" stop-color="#65B000"/>
</linearGradient>
<linearGradient id="paint5_linear_2340_24134" x1="81.9872" y1="30.7628" x2="90.2028" y2="37.1974" gradientUnits="userSpaceOnUse">
<stop stop-color="#FCF30A"/>
<stop offset="1" stop-color="#FFAA00"/>
</linearGradient>
<linearGradient id="paint6_linear_2340_24134" x1="142.975" y1="4.43559" x2="151.191" y2="10.8702" gradientUnits="userSpaceOnUse">
<stop offset="0.1905" stop-color="#56C0FF"/>
<stop offset="1" stop-color="#4786E3"/>
</linearGradient>
<linearGradient id="paint7_linear_2340_24134" x1="699.94" y1="429.385" x2="636.328" y2="428.332" gradientUnits="userSpaceOnUse">
<stop stop-color="#E2F8FF"/>
<stop offset="1" stop-color="white"/>
</linearGradient>
<linearGradient id="paint8_linear_2340_24134" x1="686.562" y1="432.864" x2="636.267" y2="432.031" gradientUnits="userSpaceOnUse">
<stop stop-color="#A5B4D4"/>
<stop offset="1" stop-color="#8788C3"/>
</linearGradient>
</defs>
</svg>
